HIERARCHY
ROOT Hips
{
    OFFSET 0.000000 0.000000 0.000000
    CHANNELS 6 Xposition Yposition Zposition Zrotation Xrotation Yrotation
    JOINT Spine
    {
        OFFSET -0.000000 0.083210 0.000000
        CHANNELS 3 Zrotation Xrotation Yrotation
        JOINT Spine1
        {
            OFFSET -0.000000 0.256334 0.000000
            CHANNELS 3 Zrotation Xrotation Yrotation
            JOINT Neck
            {
                OFFSET -0.000000 0.275576 0.002912
                CHANNELS 3 Zrotation Xrotation Yrotation
                JOINT Head
                {
                    OFFSET -0.000000 0.157287 0.020295
                    CHANNELS 3 Zrotation Xrotation Yrotation
                    End Site
                    {
                        OFFSET -0.000000 0.202951 0.000000
                    }
                }
            }
            JOINT LeftShoulder
            {
                OFFSET 0.041044 0.235234 -0.000041
                CHANNELS 3 Zrotation Xrotation Yrotation
                JOINT LeftArm
                {
                    OFFSET 0.117964 0.000000 0.000000
                    CHANNELS 3 Zrotation Xrotation Yrotation
                    JOINT LeftForeArm
                    {
                        OFFSET 0.291248 0.000000 0.000000
                        CHANNELS 3 Zrotation Xrotation Yrotation
                        JOINT LeftHand
                        {
                            OFFSET 0.245673 0.000000 0.000000
                            CHANNELS 3 Zrotation Xrotation Yrotation
                            End Site
                            {
                                OFFSET 0.152213 0.000000 0.000000
                            }
                        }
                    }
                }
            }
            JOINT RightShoulder
            {
                OFFSET -0.040052 0.235234 -0.000041
                CHANNELS 3 Zrotation Xrotation Yrotation
                JOINT RightArm
                {
                    OFFSET -0.117964 0.000000 0.000000
                    CHANNELS 3 Zrotation Xrotation Yrotation
                    JOINT RightForeArm
                    {
                        OFFSET -0.291248 0.000000 0.000000
                        CHANNELS 3 Zrotation Xrotation Yrotation
                        JOINT RightHand
                        {
                            OFFSET -0.245673 0.000000 0.000000
                            CHANNELS 3 Zrotation Xrotation Yrotation
                            End Site
                            {
                                OFFSET -0.152213 0.000000 0.000000
                            }
                        }
                    }
                }
            }
        }
    }
    JOINT LeftUpLeg
    {
        OFFSET 0.101475 0.000000 0.000000
        CHANNELS 3 Zrotation Xrotation Yrotation
        JOINT LeftLeg
        {
            OFFSET -0.000000 -0.446535 0.000000
            CHANNELS 3 Zrotation Xrotation Yrotation
            JOINT LeftFoot
            {
                OFFSET -0.000000 -0.400037 0.000000
                CHANNELS 3 Zrotation Xrotation Yrotation
                JOINT LeftToeBase
                {
                    OFFSET -0.000000 -0.065959 0.152213
                    CHANNELS 3 Zrotation Xrotation Yrotation
                    End Site
                    {
                        OFFSET -0.000000 0.000000 0.040590
                    }
                }
            }
        }
    }
    JOINT RightUpLeg
    {
        OFFSET -0.101475 0.000000 0.000000
        CHANNELS 3 Zrotation Xrotation Yrotation
        JOINT RightLeg
        {
            OFFSET -0.000000 -0.446535 0.000000
            CHANNELS 3 Zrotation Xrotation Yrotation
            JOINT RightFoot
            {
                OFFSET -0.000000 -0.400037 0.000000
                CHANNELS 3 Zrotation Xrotation Yrotation
                JOINT RightToeBase
                {
                    OFFSET -0.000000 -0.065959 0.152213
                    CHANNELS 3 Zrotation Xrotation Yrotation
                    End Site
                    {
                        OFFSET -0.000000 0.000000 0.040590
                    }
                }
            }
        }
    }
}
MOTION
Frames:    13
Frame Time:    0.008333
0.323245    0.952301    -0.023467    1.065357    -2.419291    -3.355702    -1.193395    -1.264478    -0.385932    -1.984384    5.607390    -0.027207    3.684744    -2.176071    0.300201    2.392236    5.286934    0.313486    15.748526    1.395402    1.933302    -21.543222    -2.942114    4.836439    1.198048    -0.652528    -0.554303    8.005193    -0.508843    1.970995    -9.266188    4.806359    4.906513    16.439444    -1.999665    -1.027248    -0.588028    -3.071980    0.521135    3.448309    -3.165287    -3.192619    3.607955    6.032103    3.482826    -0.577818    3.124585    8.076480    -4.022301    -6.672268    -1.102524    0.037187    3.614281    -0.317557    -6.171570    1.305184    7.615798    2.704463    11.537774    2.023976    4.084009    -12.001725    -9.183431    0.000409    2.857493    0.606385    
0.323210    0.952289    -0.023541    1.068142    -2.417717    -3.343366    -1.201348    -1.249706    -0.389006    -1.981238    5.598608    -0.028431    3.681041    -2.177572    0.300381    2.393717    5.297276    0.312715    15.743917    1.386854    1.928762    -21.560736    -2.945901    4.846996    1.201007    -0.641139    -0.565790    7.982795    -0.498228    1.964341    -9.258775    4.807502    4.903896    16.441210    -2.030051    -1.036474    -0.572096    -3.042085    0.522551    3.460107    -3.136333    -3.209466    3.609807    6.028354    3.487958    -0.578830    3.115623    8.061036    -4.021809    -6.663919    -1.103767    0.037854    3.611851    -0.323312    -6.174706    1.282002    7.644923    2.721583    11.582590    2.019987    4.067415    -12.039091    -9.216847    0.000462    2.846595    0.600816    
0.323180    0.952289    -0.023620    1.069973    -2.412914    -3.336903    -1.206781    -1.235818    -0.387556    -1.978862    5.584520    -0.028700    3.679340    -2.170774    0.302977    2.391621    5.293428    0.315940    15.737021    1.381364    1.923311    -21.577784    -2.942124    4.854004    1.208817    -0.636748    -0.570862    7.953425    -0.494116    1.965892    -9.254286    4.803026    4.904047    16.444681    -2.030253    -1.049209    -0.552336    -3.034216    0.516575    3.415187    -3.127563    -3.218394    3.611338    6.020187    3.493231    -0.579189    3.110193    8.060023    -4.022740    -6.657857    -1.114559    0.037370    3.604147    -0.319363    -6.175021    1.256418    7.660924    2.729400    11.624480    2.047541    4.054381    -12.069097    -9.263036    0.000527    2.833746    0.597767    
0.323141    0.952297    -0.023695    1.069730    -2.408731    -3.333577    -1.209708    -1.223023    -0.389219    -1.977963    5.573755    -0.029323    3.676173    -2.170597    0.308475    2.393714    5.300079    0.320744    15.733591    1.376577    1.922130    -21.591814    -2.954651    4.864438    1.209368    -0.625696    -0.576262    7.899183    -0.484027    1.963041    -9.253449    4.796716    4.915032    16.449608    -2.017401    -1.062572    -0.545857    -3.019362    0.510181    3.443959    -3.113986    -3.232109    3.615129    6.014604    3.497425    -0.579099    3.102557    8.055031    -4.027365    -6.653429    -1.117653    0.036608    3.606782    -0.312786    -6.171953    1.226819    7.678511    2.740222    11.671745    2.051300    4.041593    -12.099585    -9.283027    0.000558    2.826054    0.587869    
0.323103    0.952312    -0.023766    1.070599    -2.403050    -3.333575    -1.211564    -1.211979    -0.389129    -1.980695    5.562471    -0.029401    3.674584    -2.169463    0.313053    2.394739    5.304413    0.325142    15.729072    1.375074    1.918841    -21.602829    -2.964068    4.877389    1.208006    -0.613698    -0.580630    7.877364    -0.471157    1.982753    -9.251556    4.789033    4.927447    16.452515    -1.997350    -1.076299    -0.540040    -3.011746    0.501215    3.449600    -3.106725    -3.235544    3.617395    6.007161    3.494543    -0.579801    3.097275    8.050468    -4.026845    -6.647128    -1.109931    0.037137    3.595357    -0.317579    -6.168397    1.192284    7.687952    2.744720    11.725128    2.066183    4.031251    -12.129992    -9.304043    0.000584    2.820878    0.587447    
0.323069    0.952327    -0.023839    1.071644    -2.397027    -3.336034    -1.211484    -1.200045    -0.389398    -1.985820    5.549902    -0.029576    3.674955    -2.169028    0.318489    2.389014    5.309920    0.331656    15.723797    1.375290    1.922672    -21.611197    -2.967336    4.880118    1.202584    -0.605833    -0.559505    7.862090    -0.464294    1.975248    -9.253870    4.784232    4.938515    16.456896    -1.980422    -1.085543    -0.538819    -2.999961    0.497574    3.470561    -3.095972    -3.250167    3.617802    5.998643    3.498833    -0.577365    3.093547    8.054702    -4.031074    -6.641762    -1.117326    0.036673    3.592834    -0.313670    -6.165979    1.152361    7.698532    2.753871    11.789265    2.102475    4.011764    -12.169197    -9.349825    0.000591    2.819000    0.585150    
0.323034    0.952345    -0.023894    1.072462    -2.394979    -3.339927    -1.208381    -1.185235    -0.390382    -1.993856    5.537407    -0.029800    3.673617    -2.172645    0.327881    2.386317    5.320802    0.341283    15.715442    1.378477    1.920223    -21.612465    -2.968296    4.890219    1.197985    -0.596236    -0.547898    7.844656    -0.455195    1.974250    -9.255882    4.778669    4.953977    16.458651    -1.959041    -1.097240    -0.550465    -2.984905    0.498704    3.536511    -3.083162    -3.263534    3.617617    5.994367    3.498215    -0.574232    3.091610    8.063142    -4.032694    -6.637034    -1.120715    0.036275    3.592251    -0.310277    -6.160184    1.108188    7.699569    2.756926    11.888709    2.293661    3.963803    -12.241414    -9.537435    0.000622    2.811886    0.580041    
0.322995    0.952362    -0.023946    1.073274    -2.392976    -3.344293    -1.204921    -1.170054    -0.390966    -2.006708    5.525210    -0.029485    3.682293    -2.176279    0.332225    2.376748    5.330241    0.348198    15.714912    1.386327    1.926757    -21.612293    -2.978610    4.887244    1.185916    -0.582309    -0.535989    7.838394    -0.440922    1.983563    -9.260954    4.763837    4.969749    16.466606    -1.929169    -1.111089    -0.554258    -2.980340    0.493057    3.531080    -3.078693    -3.271716    3.617574    5.992014    3.492455    -0.572441    3.086699    8.077050    -4.032694    -6.631497    -1.122551    0.036507    3.584642    -0.312432    -6.180495    1.045285    7.702332    2.753162    11.959428    2.325927    3.981132    -12.258577    -9.563175    0.000647    2.807346    0.581892    
0.322953    0.952375    -0.023990    1.075789    -2.389959    -3.348538    -1.202842    -1.156943    -0.393127    -2.017040    5.513058    -0.030245    3.681652    -2.181590    0.339846    2.376624    5.341786    0.355655    15.710278    1.397679    1.931853    -21.613815    -2.984341    4.886989    1.189233    -0.569698    -0.525768    7.801918    -0.427515    2.006179    -9.266717    4.761029    4.983425    16.465401    -1.908275    -1.115515    -0.557765    -2.973979    0.486153    3.527041    -3.072560    -3.282634    3.616821    5.986568    3.487149    -0.572538    3.086071    8.095922    -4.034704    -6.624926    -1.131106    0.036465    3.581810    -0.312143    -6.172197    1.007003    7.704507    2.747147    12.029145    2.364485    3.966385    -12.295564    -9.598071    0.000657    2.804219    0.576689    
0.322915    0.952387    -0.024023    1.079305    -2.388554    -3.354201    -1.200808    -1.144640    -0.393944    -2.028513    5.504973    -0.030001    3.679746    -2.186848    0.347012    2.376663    5.343486    0.362515    15.709993    1.401702    1.934264    -21.615349    -2.987278    4.889606    1.186760    -0.560014    -0.512055    7.774819    -0.417920    2.012925    -9.278075    4.745481    4.997302    16.464819    -1.888001    -1.123737    -0.557532    -2.963741    0.473873    3.515757    -3.061571    -3.266239    3.613199    5.983608    3.480604    -0.568991    3.086221    8.110552    -4.040140    -6.621369    -1.135542    0.035900    3.578915    -0.307372    -6.165731    0.971190    7.703560    2.741577    12.096386    2.387173    3.958969    -12.328495    -9.617196    0.000650    2.806578    0.581321    
0.322874    0.952392    -0.024047    1.082102    -2.388696    -3.358605    -1.199178    -1.132251    -0.393993    -2.035723    5.499105    -0.029696    3.673564    -2.194075    0.352201    2.376964    5.347006    0.366855    15.704782    1.406775    1.933793    -21.613728    -2.993212    4.891282    1.187059    -0.555995    -0.499830    7.755082    -0.413649    2.023382    -9.294348    4.724867    5.001027    16.460281    -1.872032    -1.124397    -0.555700    -2.965385    0.469599    3.485948    -3.063400    -3.299301    3.610879    5.979907    3.477613    -0.566252    3.092553    8.114487    -4.040070    -6.622499    -1.128496    0.036784    3.577385    -0.314972    -6.157567    0.937124    7.696221    2.732634    12.165616    2.418333    3.945467    -12.363059    -9.633353    0.000637    2.807608    0.573796    
0.322831    0.952392    -0.024063    1.085139    -2.388878    -3.360314    -1.199000    -1.119761    -0.396158    -2.042743    5.492116    -0.030397    3.672030    -2.199013    0.355879    2.373689    5.346744    0.370946    15.704306    1.412235    1.933044    -21.615604    -2.994844    4.897140    1.189466    -0.557994    -0.494953    7.718585    -0.415797    2.032606    -9.304298    4.710048    5.004530    16.449657    -1.862690    -1.122123    -0.563856    -2.963534    0.459859    3.481516    -3.061808    -3.311568    3.609582    5.975253    3.472814    -0.564874    3.100713    8.116096    -4.042918    -6.625200    -1.120836    0.036769    3.573076    -0.314949    -6.150978    0.906251    7.690476    2.726173    12.230520    2.452980    3.939564    -12.395609    -9.659142    0.000661    2.802007    0.570572    
0.322792    0.952390    -0.024065    1.085586    -2.390584    -3.362598    -1.195693    -1.109133    -0.396967    -2.048384    5.489686    -0.030366    3.671281    -2.205516    0.356813    2.364628    5.347034    0.373201    15.701783    1.413093    1.928042    -21.616003    -2.996248    4.907075    1.192526    -0.561594    -0.492176    7.698078    -0.419389    2.038106    -9.320380    4.697267    5.006922    16.440651    -1.866065    -1.124390    -0.585292    -2.941812    0.446776    3.540808    -3.041835    -3.313158    3.611341    5.974024    3.464574    -0.564956    3.107872    8.119816    -4.047480    -6.628148    -1.116710    0.036606    3.575409    -0.313492    -6.143001    0.879090    7.677590    2.720142    12.291668    2.466119    3.932717    -12.427419    -9.657342    0.000623    2.809554    0.570022    
